<?xml version="1.0" encoding="UTF-8" standalone="no"?>
<svg
   xmlns:dc="http://purl.org/dc/elements/1.1/"
   xmlns:cc="http://creativecommons.org/ns#"
   xmlns:rdf="http://www.w3.org/1999/02/22-rdf-syntax-ns#"
   xmlns:svg="http://www.w3.org/2000/svg"
   xmlns="http://www.w3.org/2000/svg"
   xmlns:xlink="http://www.w3.org/1999/xlink"
   xmlns:sodipodi="http://sodipodi.sourceforge.net/DTD/sodipodi-0.dtd"
   xmlns:inkscape="http://www.inkscape.org/namespaces/inkscape"
   width="512"
   height="512"
   id="svg3474"
   version="1.1"
   inkscape:version="0.91 r13725"
   sodipodi:docname="adb-berlin.svg">
  <metadata
     id="metadata3508">
    <rdf:RDF>
      <cc:Work
         rdf:about="">
        <dc:format>image/svg+xml</dc:format>
        <dc:type
           rdf:resource="http://purl.org/dc/dcmitype/StillImage" />
        <dc:title>berlin skyline black</dc:title>
      </cc:Work>
    </rdf:RDF>
  </metadata>
  <sodipodi:namedview
     pagecolor="#ffffff"
     bordercolor="#666666"
     borderopacity="1"
     objecttolerance="10"
     gridtolerance="10"
     guidetolerance="10"
     inkscape:pageopacity="0"
     inkscape:pageshadow="2"
     inkscape:window-width="1920"
     inkscape:window-height="1136"
     id="namedview3506"
     showgrid="false"
     fit-margin-top="0"
     fit-margin-left="0"
     fit-margin-right="0"
     fit-margin-bottom="0"
     inkscape:zoom="0.64"
     inkscape:cx="307.7613"
     inkscape:cy="192.01046"
     inkscape:window-x="0"
     inkscape:window-y="27"
     inkscape:window-maximized="1"
     inkscape:current-layer="svg3474" />
  <title
     id="title3476">berlin skyline black</title>
  <defs
     id="defs3478">
    <linearGradient
       id="linearGradient3180">
      <stop
         stop-color="#000033"
         offset="0"
         id="stop3182" />
      <stop
         stop-color="#0100d8"
         offset="0.5976"
         id="stop3188" />
      <stop
         stop-color="#f2abf1"
         offset="1"
         id="stop3184" />
    </linearGradient>
    <linearGradient
       xlink:href="#linearGradient3180"
       id="linearGradient3186"
       y2="0.85593998"
       x2="0.5"
       y1="-0.00046700001"
       x1="0.5" />
    <clipPath
       clipPathUnits="userSpaceOnUse"
       id="clipPath3579">
      <path
         d="m 0,595.28 841.89,0 L 841.89,0 0,0 0,595.28 Z"
         id="path3581"
         inkscape:connector-curvature="0" />
    </clipPath>
  </defs>
  <g
     id="g4826"
     transform="matrix(1.2697719,0,0,1.2697719,-69.061598,-69.061597)">
    <g
       transform="matrix(0.78955238,0.41805689,0.41805689,-0.78955238,381.27213,258.91611)"
       id="g3591">
      <path
         inkscape:connector-curvature="0"
         id="path3593"
         style="fill:#ffffff;fill-opacity:1;fill-rule:nonzero;stroke:none"
         d="m 0,0 -8.359,0.003 -204.813,-0.027 -8.362,-0.003 -0.003,8.361 c -0.019,34.321 18.68,66.242 49.304,85.102 l -11.906,21.733 c -1.458,2.548 -1.822,5.772 -0.975,8.723 0.861,2.949 2.894,5.482 5.621,6.933 1.576,0.894 3.501,1.391 5.449,1.388 4.216,-0.001 8.083,-2.289 10.117,-5.989 l 12.462,-22.701 c 12.897,4.732 26.511,7.144 40.576,7.139 14.268,0.006 27.951,-2.409 40.902,-7.159 l 12.442,22.74 c 2.003,3.691 5.895,5.99 10.106,5.986 1.896,0.002 3.786,-0.461 5.455,-1.359 2.799,-1.536 4.751,-3.984 5.61,-6.954 0.855,-2.952 0.512,-6.07 -0.988,-8.774 l -11.9,-21.723 C -18.684,74.521 -0.008,42.623 -0.011,8.362 L 0,0 Z" />
    </g>
    <g
       transform="matrix(0.78955238,0.41805689,0.41805689,-0.78955238,349.65695,196.22986)"
       id="g3595">
      <path
         inkscape:connector-curvature="0"
         id="path3597"
         style="fill:#ffffff;fill-opacity:1;fill-rule:nonzero;stroke:none"
         d="m 0,0 c -4.734,-0.005 -8.597,3.828 -8.588,8.585 0,4.707 3.848,8.588 8.592,8.604 C 4.713,17.176 8.576,13.294 8.572,8.58 8.575,3.84 4.733,-0.001 0,0 m -93.257,-0.017 c -4.717,0.011 -8.559,3.845 -8.56,8.581 0.002,4.718 3.842,8.596 8.567,8.596 4.749,0.004 8.59,-3.878 8.596,-8.594 0.002,-4.733 -3.847,-8.58 -8.603,-8.583 M 3.561,44.765 19.43,73.746 c 0.846,1.514 0.293,3.454 -1.238,4.293 -1.552,0.836 -3.467,0.265 -4.285,-1.257 L -2.128,47.511 c -13.486,5.985 -28.585,9.356 -44.547,9.34 -15.929,0.013 -31.001,-3.34 -44.448,-9.309 l -16.046,29.207 c -0.828,1.54 -2.762,2.103 -4.271,1.255 -1.543,-0.823 -2.107,-2.759 -1.252,-4.27 L -96.814,44.778 C -128.01,28.686 -149.085,-1.949 -149.069,-37.121 L 55.741,-37.1 C 55.747,-1.933 34.709,28.638 3.561,44.765" />
    </g>
    <g
       transform="matrix(0.78955238,0.41805689,0.41805689,-0.78955238,158.08877,396.366)"
       id="g3599">
      <path
         inkscape:connector-curvature="0"
         id="path3601"
         style="fill:#ffffff;fill-opacity:1;fill-rule:nonzero;stroke:none"
         d="m 0,0 c -17.14,0.002 -31.089,13.944 -31.093,31.095 l -0.008,42.023 -8.167,-0.007 c -8.728,-0.002 -16.918,3.389 -23.074,9.549 -6.164,6.154 -9.56,14.35 -9.548,23.084 l -0.03,147.53 -0.002,8.367 8.361,-0.002 203.275,0.032 8.364,0.006 0.001,-8.361 0.021,-147.549 C 148.103,87.774 133.465,73.132 115.475,73.136 l -8.223,-0.01 0.012,-42.008 C 107.262,13.978 93.318,0.021 76.185,0.022 67.88,0.003 60.083,3.232 54.198,9.119 48.307,14.99 45.065,22.797 45.069,31.098 l -0.001,42.029 -13.973,0.001 0,-42.022 C 31.092,13.96 17.147,-0.003 0,0" />
    </g>
    <g
       transform="matrix(0.78955238,0.41805689,0.41805689,-0.78955238,152.14266,286.32011)"
       id="g3603">
      <path
         inkscape:connector-curvature="0"
         id="path3605"
         style="fill:#ffffff;fill-opacity:1;fill-rule:nonzero;stroke:none"
         d="m 0,0 c -0.012,-13.436 10.833,-24.282 24.257,-24.277 l 16.52,-10e-4 0.019,-50.379 c -0.003,-12.541 10.187,-22.738 22.72,-22.739 12.564,0 22.742,10.206 22.731,22.756 l 0.002,50.368 30.696,0.005 -0.002,-50.377 c 0.011,-12.543 10.214,-22.749 22.744,-22.728 12.562,-0.008 22.747,10.198 22.745,22.749 l -0.014,50.363 16.58,0.005 c 13.378,-0.005 24.261,10.867 24.26,24.274 L 203.232,147.578 -0.037,147.542 0,0 Z" />
    </g>
    <g
       transform="matrix(0.78955238,0.41805689,0.41805689,-0.78955238,338.68452,382.24226)"
       id="g3607">
      <path
         inkscape:connector-curvature="0"
         id="path3609"
         style="fill:#ffffff;fill-opacity:1;fill-rule:nonzero;stroke:none"
         d="m 0,0 c -17.148,-0.002 -31.098,13.933 -31.093,31.087 l -0.023,95.217 c 0.004,17.152 13.931,31.102 31.072,31.103 17.162,0.002 31.118,-13.945 31.115,-31.093 L 31.08,31.103 C 31.084,13.962 17.147,-0.003 0,0" />
    </g>
    <g
       transform="matrix(0.78955238,0.41805689,0.41805689,-0.78955238,400.9738,264.55101)"
       id="g3611">
      <path
         inkscape:connector-curvature="0"
         id="path3613"
         style="fill:#ffffff;fill-opacity:1;fill-rule:nonzero;stroke:none"
         d="m 0,0 c -12.555,0.01 -22.731,-10.186 -22.729,-22.743 l 0.009,-95.213 c 0.006,-12.572 10.177,-22.743 22.743,-22.735 12.555,0.002 22.719,10.165 22.73,22.743 l -0.025,95.211 C 22.726,-10.177 12.557,0.003 0,0" />
    </g>
    <path
       style="fill:#a4c439;fill-opacity:1;fill-rule:nonzero;stroke:none"
       d="m 409.42228,292.0037 c 5.24796,-9.91524 1.46646,-22.2055 -8.44841,-27.45225 -9.90865,-5.2566 -22.20602,-1.46168 -27.45361,8.45477 l -39.79265,75.18392 c -5.25577,9.92426 -1.47069,22.19821 8.44757,27.45384 9.91367,5.24712 22.19287,1.47695 27.4544,-8.45436 l 39.7927,-75.18592 z"
       id="path4769"
       inkscape:connector-curvature="0" />
    <path
       style="fill:#a4c439;fill-opacity:1;fill-rule:nonzero;stroke:none"
       d="M 213.79471,169.81287 152.13596,286.3299 c -5.61985,10.59277 -1.57727,23.68442 9.01332,29.29502 l 13.03969,6.91141 -21.04629,39.7848 c -5.24522,9.90053 -1.45829,22.21489 8.43243,27.45189 9.91994,5.25246 22.22269,1.44928 27.47126,-8.45756 l 21.04763,-39.77398 24.23861,12.82793 -21.05019,39.78072 c -5.24313,9.89657 -1.45773,22.22529 8.44293,27.44733 9.9158,5.25837 22.22329,1.45769 27.46875,-8.45282 l 21.04354,-39.77008 13.09385,6.91986 c 10.5637,5.59839 23.69426,1.5835 29.30779,-9.01262 l 61.66748,-116.51443 -160.51205,-84.9545 z"
       id="path4767"
       inkscape:connector-curvature="0" />
    <path
       style="fill:#a4c439;fill-opacity:1;fill-rule:nonzero;stroke:none"
       d="m 371.18223,162.37391 24.64591,-16.24745 c 1.3009,-0.84171 1.66913,-2.59678 0.81381,-3.91398 -0.87863,-1.29417 -2.6219,-1.65413 -3.90529,-0.79203 l -24.89769,16.41943 c -8.1431,-10.37811 -18.6498,-19.34701 -31.26726,-26.00958 -12.57135,-6.6695 -25.88549,-10.32856 -38.98572,-11.23185 l -0.45897,-29.768602 c -0.0158,-1.566196 -1.29813,-2.808228 -2.84505,-2.77915 -1.56727,0.01022 -2.82026,1.299852 -2.77609,2.850722 l 0.42921,29.50214 c -31.3562,-0.33818 -60.80398,15.03879 -75.49524,42.81561 l 161.71779,85.60607 c 14.70654,-27.76368 10.87636,-60.69616 -6.97541,-86.45133"
       id="path4761"
       inkscape:connector-curvature="0" />
    <path
       style="fill:#ffffff;fill-opacity:1;fill-rule:nonzero;stroke:none"
       d="m 349.65711,196.22994 c -3.74062,-1.97555 -5.17863,-6.61783 -3.19166,-10.36858 1.97959,-3.70815 6.62847,-5.17199 10.3808,-3.20136 3.71257,1.97889 5.13971,6.65889 3.16583,10.37916 -1.97332,3.74787 -6.61844,5.17023 -10.35497,3.19078"
       id="path4765"
       inkscape:connector-curvature="0" />
    <path
       style="fill:#ffffff;fill-opacity:1;fill-rule:nonzero;stroke:none"
       d="m 276.01793,157.25622 c -3.71893,-1.98025 -5.14956,-6.61356 -3.17043,-10.3533 1.97397,-3.72427 6.62196,-5.18454 10.35771,-3.2055 3.75125,1.98219 5.16103,6.65299 3.19421,10.37903 -1.97667,3.737 -6.62513,5.16567 -10.38149,3.17977"
       id="path4763"
       inkscape:connector-curvature="0" />
    <path
       d="m 262.71357,121.69195 c -0.69697,0.0694 -1.04948,1.31203 -1.77429,1.70077 l -0.20617,-0.31933 c -0.85101,0.93717 -1.84774,1.61747 -2.97039,2.09647 -0.51995,0.36098 -1.27384,0.49288 -1.15798,1.49251 0.55466,0.15273 0.78937,0.41652 0.24227,0.9927 -0.45886,0.20826 -0.88301,0.45817 -1.4385,0.61783 -0.12982,-0.75667 -0.26935,-1.51334 -0.29851,-2.30472 -0.0625,-0.0972 -0.18673,-0.16661 -0.31794,-0.24297 l 0.0208,-0.23602 c 0.21798,-0.10413 0.52412,-0.2152 0.52273,-0.48594 -6.3e-4,-0.27768 -0.36376,-0.40263 -0.5977,-0.36098 -0.0139,0.0833 -0.0819,0.0902 -0.14925,0.0972 l -0.0208,-0.0972 c 0.0736,-0.0694 0.11246,-0.1319 0.11246,-0.22214 0,-0.12496 -0.0889,-0.22214 -0.20548,-0.24297 l 0,-0.26379 0.14925,0 0,-0.0902 -0.14925,0 0,-0.15272 -0.0937,0 0,0.1319 -0.14925,0 0,0.0902 0.14925,0 0,0.2638 c -0.11454,0 -0.20548,0.12495 -0.20548,0.24296 0,0.0833 0.0486,0.15967 0.11246,0.20826 l -0.0347,0.0902 c -0.0798,0.007 -0.15342,0 -0.20618,-0.11107 -0.40957,0 -0.46858,0.25685 -0.48524,0.40957 -0.0139,0.15966 0.19924,0.36098 0.39222,0.47205 l 0.0208,0.23603 c -0.22909,0.11107 -0.42762,0.20131 -0.5977,0.37486 -0.0555,0.25685 -0.0278,0.5137 0.11176,0.77056 0.0208,-0.0972 0.0417,-0.18049 0.11246,-0.22909 0.12565,-0.0972 0.31308,-0.13189 0.44776,0.0694 0.0278,0.65254 0.21381,1.39533 -0.27976,1.83267 -0.64768,-0.19437 -1.28023,-0.39569 -1.60713,-1.08294 0.79069,-0.72196 -0.0278,-1.02046 -0.2985,-1.45781 -1.67294,-1.39532 -3.55483,-1.673 -4.9884,-3.11692 l -0.11177,0.20131 c -0.42276,-0.34015 -1.17381,-1.08294 -1.38269,-0.93022 -0.21312,0.15273 0.2145,0.70808 0.44845,1.06212 -0.622,0.66643 0.22422,0.84692 0.44844,1.23566 -0.45122,0.44429 0.12288,0.79138 0.42971,1.15931 -0.13676,0.36792 -0.227,0.74278 0.65393,1.0274 -0.35473,0.52065 0.1673,0.70808 0.5977,0.93022 -0.14647,0.44428 0.0625,0.61783 0.41096,0.69419 0.11107,0.23603 0.11663,0.63172 0.52342,0.46511 0.0889,0.27768 0.21382,0.49982 0.61645,0.37487 0.0625,0.52064 0.35473,0.57618 0.80332,0.33321 0.0555,0.31239 0.15203,0.5137 0.37347,0.45123 -0.004,0.35403 -0.50467,0.99269 0.14995,0.97187 0.0486,0.36792 -0.007,0.93716 0.48524,0.56229 0.16244,0.24297 0.26171,0.71502 0.63519,0.18743 0.15411,0.18744 0.29156,0.57618 0.52342,0.0902 0.17008,0.12495 0.12565,0.68725 0.63519,0.11107 0.1423,0 0.12426,0.75667 0.0937,0.78444 -0.0208,0 0.22353,-0.0694 0.22353,-0.0694 l 0,0.39569 c -0.91161,0.10413 -0.92813,0.65948 -0.85948,1.24955 0.007,0.007 0.0139,0.007 0,0 -1.44399,0.87468 -2.40961,2.46438 -2.40961,4.27623 0,2.6657 2.09799,4.84546 4.72683,4.99125 l -0.0208,0.44428 c -0.49357,0.15966 -0.59909,0.2152 -0.61644,0.46511 -0.0208,0.25685 0.20826,0.31238 0.4297,0.47205 l 0.13051,0.49982 0.13051,1.49946 c -0.32141,0.22908 -0.25963,0.47205 0.0555,0.70807 l 0.14994,4.14434 -1.12112,0.88162 c -0.37834,0.45123 -0.7641,0.91634 -1.19609,1.23566 -1.77297,-1.38838 -2.88924,-0.20825 -3.40002,0.59701 -0.52134,0.81221 -0.65324,4.71357 -0.44845,7.11548 0.59423,3.79029 0.85587,7.6153 1.10224,11.45419 -0.99825,0.67336 -4.07894,2.33943 -5.06261,2.70735 l 0.0208,-0.78444 0.61644,-1.62441 -0.0347,-1.21484 c -0.62686,-0.47205 -0.3471,-0.59006 -0.0937,-0.70808 0.37625,-0.75667 -0.1076,-1.52722 -0.61644,-2.28389 l -0.54147,-0.37487 c -0.88573,-0.29156 -1.86662,-1.14541 -2.41017,0.6942 -0.0791,-0.38181 -0.54564,-0.57618 -0.97118,-0.78444 -0.0486,0.47205 -0.33113,0.95799 0.2985,1.34673 l -0.0347,0.52065 c -0.77069,0.8122 -0.60394,1.29814 -0.5977,1.85349 0.0208,0.71502 0.0347,1.15237 0.0555,1.60359 -0.19715,1.25649 -0.43248,2.51298 -0.61645,3.77641 -4.4622,1.45086 -12.27826,2.37414 -13.80673,1.70077 l 0.075,-0.26379 -0.2992,-0.11107 c -0.8122,-2.27001 -1.21747,-4.60944 -2.50319,-6.82392 -0.12773,-0.70808 -0.68517,-1.40921 -1.12112,-2.12423 -1.09273,-0.66642 -2.07571,-1.99233 -3.26972,-1.99928 -0.58312,-0.007 -1.20859,0.29157 -1.92423,1.13848 l -0.67268,0.31933 c -0.68447,-0.24991 -0.75313,-0.0694 -0.93362,0.0902 l -0.44844,-0.1319 0,0.35404 c 0.61089,0.007 0.7357,0.39569 0.9711,0.71502 0.13606,0.4304 0.0972,0.80526 0.0347,1.17318 -0.35681,0.40263 -0.63588,0.75667 -0.5977,0.89551 0.0993,0.24297 0.1076,0.49288 0.075,0.7289 l 0.56022,0.71502 0,1.17319 c 0.24783,0.96493 0.45817,1.90903 -0.33669,2.54075 0.1555,0.34709 0.32072,0.72196 0.54217,1.19401 0.20756,0.18743 0.23255,0.46511 0.31794,0.71502 0.37278,0.52064 0.8129,0.36098 1.25163,0.1666 0,0 1.52514,0.48594 1.62511,0.48594 0.1,0 -0.075,0.61783 -0.075,0.61783 l 0.075,0 -0.0555,0.76361 c -0.62616,0.65254 -1.16347,1.33285 -1.38214,2.18671 -0.46719,0.68031 -0.3825,1.14542 -0.35542,1.62441 l 0.4297,2.07564 c 0.3464,0.45817 0.26727,1.46475 0.33668,2.0201 0.50329,1.67995 -0.6685,1.91598 -1.53208,2.42968 l -0.24297,1.38144 c 0.4068,1.53417 0.37695,3.3599 0.50468,5.0815 0.11593,0.68725 0.22284,1.38144 0.0347,2.16588 0.45539,1.68689 1.95832,2.47827 2.5034,1.27037 0.538,-1.19401 -0.36237,-1.96456 -0.72897,-2.69347 -0.35126,-0.13189 -0.29017,-0.58312 -0.24297,-0.90939 -0.4547,-2.4991 -0.37972,-3.67922 0.14995,-4.1721 0.12634,-0.27768 0.14578,-0.59701 0.1305,-0.93022 0.68587,0.15967 1.06774,-0.81915 1.45712,-0.8608 0.39013,-0.0694 0.52828,0.36098 0.87815,0.27768 0.75098,-0.34016 1.62233,0.40263 2.37268,-0.24297 -0.19923,-0.3471 -0.71557,-0.70113 -0.57895,-1.0274 l 1.34458,0.18743 c 0.22561,0.99269 0.77416,1.68689 1.27114,2.42967 0,0 0.18743,2.43662 0.0743,2.54075 -0.56993,0.52759 0.0909,2.85313 0.0937,3.04751 0.21451,1.29814 0.0347,2.60322 -0.16799,3.90136 l 0.0347,1.20096 c -0.25268,0.25685 -0.49426,0.43734 -0.74695,0.61089 -0.0555,0.38875 -0.13051,0.75667 -0.20548,1.12459 l -14.66622,0 0,1.27037 -4.48379,0 0,3.11693 -3.13838,0 0,3.12387 -123.22476,0 7.29805,9.41326 0,15.66099 -3.1197,0 0,3.13776 -12.55518,0 -6.25829,3.11692 6.25829,3.15858 0,3.11693 12.55518,9.39937 0,18.79875 -6.27759,0 6.27759,9.41326 0,140.97674 25.05322,0 0,-9.39243 -3.11949,-3.13776 0,-134.72205 3.11949,-3.13776 28.19271,0 3.15719,3.13776 0,134.72205 -3.15719,3.13776 0.168,9.39243 28.04248,0 0,-9.39243 -3.15698,-3.13776 0,-134.72205 3.15698,-3.13776 34.45163,0 3.13837,3.13776 0,134.72205 -3.13837,3.13776 0,9.39243 28.22936,0 0,-9.39243 -3.15809,-3.13776 0,-134.72205 3.15809,-3.13776 56.3657,0 3.139,3.13776 0,134.72205 -3.139,3.13776 0,9.39243 28.21111,0 0,-9.39243 -3.12033,-3.13776 0,-134.72205 3.12033,-3.13776 34.45079,0 3.15719,3.13776 0,134.72205 -3.15719,3.13776 0,9.39243 28.2109,0 0,-9.39243 -3.13852,-3.13776 0,-134.72205 3.13852,-3.13776 28.19229,0 3.1574,3.13776 0,134.72205 -3.1574,3.13776 0,9.39243 25.0721,0 0,-140.97674 6.25892,-9.41326 -6.25892,0 0,-18.79875 12.5363,-9.39937 0,-3.11693 6.27738,-3.15858 -6.27738,-3.11692 -12.5363,0 0,-3.13776 -3.13851,0 0,-15.66099 7.15011,-9.41326 -123.05801,0 0,-3.12387 -3.15719,0 0,-3.11693 -5.99714,0 0,-1.27037 -19.99067,0 -0.0347,-14.81408 c 0,0 0.18535,0 0.39221,0 0.0417,0.68725 0.24853,1.34673 0.65393,1.97845 0.0555,1.33285 0.24158,2.63099 0.14995,3.99855 l -0.41166,1.04823 0.56091,1.40227 c -0.1194,0.3471 -0.28323,0.60395 -0.48593,0.78444 l 0.31794,2.14506 c 0.40124,0.18049 0.85795,0.23602 1.10224,0.77055 l -0.18744,1.39533 c 0.54078,0.96493 1.38152,1.22872 2.46661,0.93716 0.0208,-0.597 -0.0625,-0.89551 0.0743,-1.79102 l -0.41096,-0.63865 0.0347,-0.89551 c 0.44567,-0.31239 0.80651,-0.70114 0.67267,-1.54805 0.0347,-0.61089 -0.1916,-1.17319 -0.48593,-1.74243 -0.15828,-0.53453 -0.11385,-1.08294 -0.11177,-1.62441 0.4901,-1.6383 0.74765,-3.12387 0.98978,-4.59556 0.37417,-0.29156 0.71224,-0.0902 1.04698,0.0694 0.0208,1.32591 1.14396,3.02668 -0.24366,3.86666 l -0.48524,1.38838 c 0.59492,2.16588 0.12218,4.29706 -0.52342,6.42129 0.0694,0.55535 0.0486,1.18707 0.39222,1.42309 l 3.45632,0 -0.093,-0.67336 -0.89696,-0.95105 c 0.003,-0.81915 0.0208,-1.65912 0.14925,-2.51992 -0.18049,-2.44356 0.19298,-3.56815 0.54216,-4.74828 1.33764,-1.24261 1.23088,-1.6383 1.51328,-2.26307 0.75458,-0.49288 0.77471,-1.44392 0.93382,-2.29778 l 1.34528,-0.76361 c 0.46094,-0.25685 -0.63935,1.36062 -0.2992,1.5897 0.34779,0.23603 0.5262,-0.52759 0.86011,-0.63866 0.82664,0.0833 1.50494,0.39569 2.16658,0.72891 l -0.0347,2.97114 -0.76584,1.45781 0.0208,1.19401 c -1.85135,1.35368 -1.33632,3.16552 -0.42971,3.26965 0.92203,0.11107 1.48488,0 1.81261,-1.97845 l -0.20618,-0.80526 c 0.32766,-0.27074 0.49149,-0.70114 0.65393,-1.13848 0.1562,-1.44392 0.007,-2.95032 0.82262,-4.27623 l 0.0743,-1.5897 c -0.69766,-0.66643 -0.93702,-1.63136 -1.23282,-2.54075 0.18535,-0.58312 0.17078,-1.88126 0.18674,-1.8882 0.18049,-0.0972 0.46372,-0.76362 0.37348,-1.67995 0.19507,-0.37487 0.43595,-0.74973 -0.0208,-1.2912 0.0902,-0.7289 -0.34987,-1.36756 -0.74702,-2.01316 -0.30822,-0.36098 -0.38319,-0.91634 -0.46719,-1.45781 l -0.168,-1.34673 c 0.39917,-0.54147 0.6942,-1.08294 0.82179,-1.62441 0.33182,-0.10413 0.63588,-0.3471 0.87808,-0.9927 0.23742,-0.22908 0.47206,-0.50676 0.71037,-0.91633 -0.12148,-0.22215 -0.37,-0.29851 -0.24296,-0.85386 0.0555,-0.90939 -0.0208,-1.8535 0.28045,-2.67265 l 0.42901,-0.82609 c 0.39153,-0.44428 0.41652,-0.92327 -0.18674,-1.4578 l 0.0555,-0.83997 0.33599,-0.68726 c 0.38875,-0.55535 1.0635,-0.98575 0.69141,-1.86738 -0.4297,0.52759 -0.85864,0.62478 -1.28911,0.81915 -0.28115,-0.31238 -0.41582,-0.73584 -1.1205,-0.70807 0.28254,-0.54147 0.25616,-0.74279 0.0743,-0.74973 -0.0139,0 -0.0208,0 -0.0347,0 -0.16869,0 -0.43387,0.15272 -0.74695,0.33321 -0.71141,0.11107 -1.49252,0 -2.03677,0.61783 -0.73362,0.12496 -1.36408,0.54841 -1.73756,1.66607 -1.21817,0.77055 -1.61601,1.59664 -1.66266,2.46438 -1.2946,1.65912 -1.21324,3.6584 -1.4946,5.56743 l -0.24297,1.36062 -0.22422,0.79138 -0.14925,0.36792 0.0208,0 -0.0208,0.0694 c -3.24536,0.52064 -6.44857,0.36792 -9.64026,0.1319 -2.25474,-1.01353 -4.51927,-2.13812 -6.72611,-2.91561 l -0.0208,-0.11108 0.0347,0 c -0.0417,-0.49287 0.0208,-0.90245 0.16869,-1.27037 0.20132,-0.24991 0.33599,-0.57618 0.41097,-0.95104 -0.0139,-0.37487 0.0417,-0.77056 0.14925,-1.14542 -0.28879,-0.19438 -0.49219,-0.52065 -0.65393,-0.90939 0.18188,-0.61784 0.25129,-1.31203 0.24296,-2.05482 0.19646,-0.69419 0.81561,-1.30508 0.0743,-2.17282 -0.14855,-0.38181 -0.28253,-0.7775 -0.61644,-1.09683 0.3825,-0.99963 0.66642,-1.90209 -0.82199,-0.83997 -0.53662,-0.74973 -1.19332,-0.96493 -2.11105,-0.18743 l -0.4297,-0.4304 c -0.18882,-2.13812 -0.53661,-7.87215 -0.87816,-9.73259 -0.49704,-2.71429 -2.05557,-5.14397 -4.29719,-2.4505 0.47066,1.24955 0.44984,2.44356 -1.10224,3.43626 -0.0555,0.007 -0.10482,0 -0.14925,0 -0.25963,0 -0.37209,-0.0694 -0.48594,-0.0902 l -0.0743,0 c -0.0208,-0.007 -0.0486,0 -0.075,0 -0.11662,-0.44428 -0.45053,-0.61783 -0.82199,-0.74973 -0.41374,-0.27073 -0.46858,-0.8122 -0.63519,-1.27037 0.21381,-0.48594 0.40958,-0.96493 0.33599,-1.45781 0.22423,-0.0694 0.22978,-0.22214 0.22423,-0.38875 0.17701,-0.1666 0.32349,-0.35403 0.35473,-0.63865 l 0.39291,0 -0.14994,-0.35404 0.26171,-0.0903 -0.11177,-0.22214 0.168,-0.0694 0.0347,-0.27768 -0.24297,0 0.33599,-0.24296 -0.20548,-0.14578 0.18673,-0.45123 -0.2985,0.14578 -0.1312,-0.85386 -0.093,0.49982 -0.61645,-0.7289 -0.0937,0.15272 -0.33599,-0.40957 -0.0208,0.31239 -0.22422,0 0.0208,-0.20132 -0.78513,0.14578 0.0347,-0.22214 -0.65393,0.20826 0.0347,-0.17355 -0.71016,0.4304 0.075,-0.22214 -0.89696,0.52064 -0.0555,-0.25685 -0.39222,0.59701 -0.31724,0.0902 -0.11246,-3.84583 c 0.24019,-0.26379 0.33668,-0.54147 -0.0347,-0.74973 l 0.0208,-1.49251 0.11246,-0.48594 c 0.16175,-0.17355 0.39569,-0.27768 0.39222,-0.50676 -0.003,-0.22908 -0.10552,-0.30544 -0.5977,-0.40957 l -0.0555,-0.46511 c 2.52144,-0.24991 4.50267,-2.38108 4.50267,-4.97042 -0.0208,-2.38803 -1.77783,-4.31789 -3.43771,-4.74829 l 0,-0.36792 c 0.3103,-0.0902 0.5373,0.17355 0.80311,0.25685 0.084,-0.0694 0.30128,0.46511 0.31794,0.50676 0.0139,0.0694 0.11038,-0.36098 0.0347,-0.40957 -0.11732,-0.15272 -0.31169,-0.17355 -0.35543,-0.47205 -0.32627,-0.0694 -0.6449,-0.12496 -0.9711,-0.33321 0.0139,-0.11107 -0.14162,-0.33322 0.11176,-0.29851 0,0 -0.0208,-0.31238 -0.0347,-0.33321 -0.0139,0 0.11246,-0.0694 0.11246,-0.0694 0.002,-0.29156 -0.0972,-0.62477 -0.18674,-0.95104 0.0555,-0.10413 0.13745,-0.13884 0.20548,-0.18744 0.1562,0.15967 0.31239,0.31239 0.41097,0 0.1548,0.23603 0.32835,0.22909 0.54147,-0.0694 0.18326,0.26379 0.34362,0.33321 0.46719,-0.1319 0.17285,0.14578 0.35057,0.37486 0.52342,-0.18743 0.29503,0.0833 0.57479,0.11801 0.52342,-0.37487 0.311,0.0972 0.36792,-0.0972 0.27976,-0.46511 0.32488,-0.0694 0.18119,-0.32627 0.11177,-0.55535 0.1312,-0.0833 0.0965,-0.24991 0.0937,-0.39569 0.34016,0.0972 0.29365,-0.0972 0.28046,-0.2638 0.25199,0.0694 0.38041,0 0.37347,-0.31238 0.37695,0.15272 0.30059,-0.15967 0.33599,-0.36098 0.33113,0.0694 0.33391,-0.20826 0.31794,-0.46511 0.14509,-0.10413 0.26657,-0.20826 0.168,-0.4304 0.2867,-0.19438 0.39638,-0.40958 0.22422,-0.65254 0.10344,-0.19438 0.48663,-0.23603 0.11246,-0.6942 0.13745,-0.29156 0.72071,-0.41651 0.33599,-0.90939 0.3228,-0.31239 0.3707,-0.60395 0.18674,-0.88162 0.22492,-0.40958 0.84615,-0.94411 0.35543,-1.11766 -0.21451,-0.0833 0.2624,-0.74972 0.39221,-1.12459 -0.0208,0 -0.0486,0 -0.075,0 z m -8.59418,3.13775 c 0.0417,0 0.0896,0 0.11246,0.0694 0.0923,0.0902 0.0923,0.33322 0,0.4304 -0.0486,0.0694 -0.1798,0.0694 -0.22422,0 -0.093,-0.0972 -0.093,-0.34015 0,-0.4304 0.0208,0 0.0701,-0.0694 0.11176,-0.0694 z m 0.63519,0 c 0.0417,0 0.0896,0 0.11246,0.0694 0.0923,0.0902 0.0923,0.33322 0,0.4304 -0.0416,0.0694 -0.1791,0.0694 -0.22423,0 -0.093,-0.0972 -0.093,-0.34015 0,-0.4304 0.0208,0 0.0701,-0.0694 0.11177,-0.0694 z m -0.4665,7.37928 c 0.0417,0.37486 0.0208,0.73584 -0.0347,1.10376 -0.0979,-0.10413 -0.2152,-0.17354 -0.28045,-0.40957 l -0.0208,-0.26379 c 0.0972,-0.15273 0.0875,-0.38875 0.33668,-0.4304 z m -0.80395,0.97187 c 0.0826,0 0.18188,0 0.28046,0.0764 0.0861,0.32627 0.0416,0.50676 -0.11246,0.56229 -0.13814,-0.27073 -0.31308,-0.26379 -0.48524,-0.0972 -0.0854,0.23602 -0.20201,0.34015 -0.35543,0.37486 l -0.0208,-0.27768 c 0.19576,-0.33321 0.39569,-0.63171 0.69072,-0.63865 z m 1.96173,1.77713 c 0.36445,0 0.70398,0.1319 1.02747,0.26379 1.29335,0.52065 2.20476,1.75631 2.20476,3.24883 0,1.81878 -1.34042,3.29047 -3.10089,3.49179 l -0.0208,-0.16661 0,-0.20825 0.99061,0 c -0.28809,-0.81915 -0.80588,-1.38145 -0.84066,-2.50604 0.96138,0.0694 1.74374,0.47899 2.54074,0.8608 l -0.075,-2.89479 c -0.64005,0.40958 -1.13917,0.88857 -2.48459,0.91634 -0.0944,-1.02047 0.38945,-1.84656 0.78444,-2.70736 l -1.02747,0.0902 0,-0.35404 z m -0.80312,0 c 0.003,0.11801 0.0139,0.24991 0.0208,0.38875 l -1.23365,0.0972 c 0.62685,0.88162 1.02664,1.77019 0.9718,2.65181 -0.99763,-0.0694 -1.6224,-0.55535 -2.35387,-0.93716 l 0.075,2.76983 c 0.71162,-0.39569 1.42046,-0.80526 2.35408,-0.8608 0.17494,0.90246 -0.34154,1.7216 -0.63588,2.57546 l 0.99061,0 c 0.003,0.11107 0.0139,0.25685 0.0208,0.35404 -1.81171,-0.15272 -3.21335,-1.65912 -3.21335,-3.51262 0,-1.79102 1.29397,-3.24882 3.00787,-3.49179 z m 0.61645,19.31245 0.0347,2.30472 c -0.62755,0.007 -1.15584,0 -1.70008,-0.0694 0.0139,0 -0.21729,-0.28462 -0.26171,-0.33322 -0.11316,-0.12495 0.93299,-1.89514 1.10224,-1.77713 0.25338,-0.0694 0.51092,-0.0694 0.82199,-0.15272 z m 0.80311,0.24297 0.24297,0 c 0.003,0.40263 0.006,0.79138 0.0937,1.36756 -0.0486,0.23603 -0.17841,0.3471 -0.28045,0.49982 l -0.0555,-1.8882 z m 7.54803,14.91127 c 0.30753,0.34015 0.2152,0.68725 0.26171,1.0274 l 0.44775,0.1319 0.78514,2.59628 c -0.45331,-0.25685 -0.94549,-0.43734 -1.43844,-0.61783 l -0.46719,-2.24224 c 0.28739,-0.12496 0.37,-0.479 0.41096,-0.89551 z m -9.82714,1.67995 0.0208,0.48593 0.0208,0 c -0.20895,0.40263 -0.44706,0.57618 -0.69141,0.69419 l -0.0347,-0.80526 0.69142,-0.37486 z m -3.6618,2.42967 c 8.4e-4,0 -0.001,0.0694 0,0.0694 -1.90903,1.41616 -3.49325,3.1447 -4.89461,5.06761 l -0.20548,-2.59628 c 1.68605,-0.81221 3.34871,-1.58276 5.10009,-2.52686 z m -30.60274,3.29048 c 0.0625,0 0.20271,1.27037 0.16869,1.17318 -0.0708,-0.19437 -0.50329,-0.14578 -0.59839,0.0764 -0.12357,-0.0833 -0.13815,-0.28462 -0.168,-0.4304 0.11802,-0.32628 0.36654,-0.56924 0.5977,-0.81915 z m 20.53278,1.13847 c -0.0771,0.55536 -0.14717,1.11071 -0.18674,1.66607 l -0.20548,0.35404 c -3.77162,0.2152 -7.62918,0.26379 -11.17241,-0.17355 3.98661,-0.1319 7.84084,-0.74279 11.56449,-1.84656 z m -20.56964,0.0694 0.0208,0.46511 c -0.22075,0 -0.25269,-0.11801 -0.28046,-0.25685 0.0347,-0.24297 0.15481,-0.18743 0.26172,-0.20826 z m 52.47968,0.20826 c 2.01663,0.63866 3.92011,1.58276 5.84775,2.44356 -1.86599,-0.34015 -3.73872,-0.65948 -5.60471,-1.28426 -0.0208,-0.0694 -0.0347,-0.0694 -0.0555,-0.0972 0.26102,-0.28462 0.15134,-0.49982 0.14926,-0.72891 l -0.27976,0.0694 -0.0555,-0.37486 z m -52.83517,0.24297 c 0.10343,0.14578 0.19437,0.20826 0.54216,0.14578 0.0208,0.59006 0.0347,1.14542 -0.0555,1.2912 -0.26449,-0.0902 -0.538,-0.15272 -0.74703,-0.27768 0.35335,-0.33321 0.39778,-0.74973 0.26102,-1.1593 z m 76.45023,0.46511 c -0.0958,0.37486 -0.18465,0.74279 -0.48593,0.99269 -0.0278,-0.25685 -0.0701,-0.5137 -0.0555,-0.7289 0.18327,-0.13189 0.3589,-0.22214 0.54217,-0.26379 z m -69.3873,0.74973 c 4.51496,0.62477 8.59813,0.79138 13.3201,0.54147 l -0.0208,0 0.27976,0.0694 -0.18674,0.79832 c -0.72557,0.75667 -1.35645,1.59664 -1.81191,2.61711 -0.69142,0.68725 -0.39014,1.24954 -0.31794,1.85349 -0.25824,1.18707 -0.23048,2.38108 -0.0347,3.56816 l 0.37347,1.28425 c -0.86475,-0.39569 -2.35602,-1.22872 -3.13838,-1.79102 0.007,-0.0694 0.0278,-0.0694 0.0347,-0.11107 -0.0951,-3.54038 0.47414,-7.51117 -5.28753,-7.4348 -1.00949,-0.0902 -1.95838,-0.22909 -2.57823,-0.59701 l -0.65393,-0.7289 0.0208,-0.0694 z m 46.20188,0 c 1.76387,0.62477 3.67582,0.90939 5.51134,1.20095 1.43975,0.52065 3.26187,1.27037 4.31559,1.47169 0.26657,0.0694 0.6456,0 1.06496,-0.0694 -0.60256,0.36792 -1.12446,0.82609 -1.45711,1.32591 -0.0417,0.0694 0.1312,0.16661 0.1312,0.16661 l -0.26171,0.63865 c -0.42276,1.00658 -0.68656,2.05482 -0.85948,3.11693 l -4.54002,2.91561 -0.44845,0.0764 c 0.0347,-1.00658 0.30128,-2.08258 -0.13121,-2.93643 -0.0208,-2.08258 0.0625,-4.20681 -0.11176,-6.23386 l -1.81233,-0.0694 -0.13051,0.72891 c -0.45817,-0.9927 -0.86101,-1.65218 -1.27051,-2.35332 z m 15.74985,1.06905 -0.0208,0.0694 c -0.29781,0.1319 -0.6985,0.24991 -1.10252,0.35404 -0.48594,-0.007 -1.0878,0.0972 -1.71875,0.27768 -0.007,0.007 -0.007,0 -0.0208,0 -0.35681,0.10413 -0.72814,0.23603 -1.08364,0.39569 -0.65323,0.23603 -1.3175,0.42346 -1.90556,0.22214 l -3.38141,-1.13848 -0.11246,0 c 3.1002,0.20826 6.1922,0.43735 9.34176,-0.14578 z m -0.1312,0.25686 -0.14925,0.34015 c -0.10899,-0.0694 -0.24575,-0.12495 -0.41096,-0.15272 0.21381,-0.0694 0.40332,-0.1319 0.56021,-0.18743 z m -7.28639,7.42092 c -0.10274,0.83303 -0.17771,1.67301 -0.24297,2.51992 0,0.007 6.3e-4,0 0,0 l -3.9417,0.0694 4.18446,-2.57546 z m -46.22056,0.78444 c 1.24525,0.80526 2.35172,1.29814 3.43751,1.73548 l 0.0208,0.0972 -4.01646,-0.0972 c 0.20271,-0.56924 0.40124,-1.15236 0.56091,-1.73548 z m 45.11832,2.37414 0.11246,14.81408 -3.73684,0 -0.0347,-4.37342 0,-0.99269 0.0208,-5.13703 0.42971,0 0.11246,-0.98576 0.78451,0 c 0.20964,-0.43734 0.18743,-0.87468 0,-1.31202 l -0.78451,0 -0.1312,-1.08294 -0.42971,0 0,-0.83998 3.66187,-0.0902 z m -45.94094,0.0902 1.40137,0.0694 -0.13051,14.68219 -2.8398,0 c -0.007,-1.18707 -0.25199,-3.13081 0.0555,-3.30436 0.6456,-0.15967 0.77903,-0.59701 0.50399,-1.25649 0.67961,-0.86774 1.23726,-1.75631 0.52342,-2.97115 -0.0708,-1.22872 -0.13467,-2.5338 -0.20548,-3.90136 l 0.27976,0.18743 c 0.11107,-0.52065 -0.0785,-0.98576 -0.31725,-1.44392 0.22909,-0.68031 0.47969,-1.35368 0.72835,-2.03399 z m 1.77485,0.0694 2.69076,0.0694 c 0.28323,1.86738 1.40373,3.48485 0.80311,5.62297 0.78937,1.73548 1.06649,3.57509 0.95313,5.49106 0.26518,0.93716 0.40749,1.82573 -0.1312,2.40885 0.0486,0.37487 0.1555,0.76362 0.0555,1.10377 l -4.63381,0 0.26171,-14.68218 z m -5.58604,0.25685 0,0.82609 c -0.39221,0.49982 -0.48038,0.86775 -0.5977,1.22873 l -0.18673,-0.35404 0.7845,-1.70078 z m 13.45125,3.83195 0.50467,0 c 0.49357,1.48557 -0.25546,2.61017 0.44845,3.92219 -0.18535,0.68725 8.4e-4,1.38839 0.26171,2.07564 0.21937,0.79832 0.40194,1.64524 1.23275,1.83267 l 0.0208,2.76289 -2.76504,0 -0.41097,-1.64524 0.168,-2.78371 c 0.16799,-0.95105 0.13745,-1.60359 0.13051,-2.29778 0.44845,-0.78444 0.56646,-1.71466 0.11246,-2.86008 -0.13884,-0.37486 -0.10274,-0.71502 0.2985,-1.00658 z m 3.32608,0.20132 c 0.48594,0 0.97173,-0.0694 1.45711,0.22908 l 0.168,0.5623 c -0.42971,1.08988 -0.0625,2.25612 0.2992,3.43625 l 0.075,3.11693 c -0.22978,0.73584 -0.46303,1.46475 -0.075,2.37414 -0.0896,0.34015 -0.29434,0.44428 -0.4672,0.61783 l 0.0937,0.0694 -1.84919,0 0.0208,-2.76289 c 0.46997,-0.22214 0.7135,-0.597 0.91564,-0.99269 0.18674,-0.78444 0.21451,-1.51334 0.13051,-2.20754 -0.35265,-1.47863 -0.83581,-2.94338 -0.76569,-4.42895 z m 26.06209,0.11801 0.0208,0 0.61714,0 0.35473,0.34015 0.13051,0.52065 0.33668,9.39937 -1.36409,0 -0.0208,-1.24954 c -0.32974,0 -0.60464,-0.0694 -0.57896,-0.29851 l 0.20548,-3.02668 c 0.48802,-0.88857 -0.0417,-1.27731 -0.20548,-1.83267 0.18535,-0.45817 0.23325,-1.05517 0.14925,-1.77713 0.54564,-0.41652 0.29573,-1.35368 0.35473,-2.08952 z m -4.96917,0.1319 c 0.1201,0.95104 0.20548,1.92985 0.67267,2.79759 l 0.26102,1.25649 c -0.24852,1.40922 0.22492,1.66607 0.37417,2.44356 l -0.37417,1.00658 c 0.54078,0.63172 0.85122,1.24955 2.09306,0.47205 l -0.075,0.54148 c 0.18674,0.22214 0.21451,0.44428 -0.22422,0.67336 l 0.075,0.95105 -4.65269,0 0.0208,-0.37487 c 0.28948,-0.8608 0.36168,-1.63829 0.11246,-2.3186 -0.10621,-1.69383 0.11663,-3.30436 0.72814,-4.8177 0.20895,-0.74279 -0.35126,-1.52028 0.16869,-2.50604 l 0.822,-0.12495 z m -17.54358,0 7.09952,0.78443 0,0 0.0347,8.27479 -0.57896,1.04823 -6.80046,0 0.0347,0 c -0.23325,-0.25685 -0.49773,-0.49982 -0.20478,-1.19401 l -0.13121,-1.79102 0.28046,-3.34601 c 0.42623,-1.22178 0.72689,-2.46439 0.26101,-3.77641 z m 13.60126,0.39569 0.0555,0.25685 -0.56021,0.17355 c -0.54078,1.5897 -0.44637,2.70735 1.51258,2.42967 l -0.093,4.14433 c -0.27005,0.63866 -0.33808,1.33286 0.0208,2.14506 l -0.22422,0.58312 -4.33448,0 -0.5609,-1.38144 -0.13051,-6.9697 0.37417,-0.27768 0,-0.67336 3.94149,-0.4304 z m -33.81547,1.70077 c 0.22215,-0.007 0.2041,0.29156 0.20548,0.55535 -0.17285,-0.0902 -0.25893,-0.30544 -0.20548,-0.55535 z m -2.20468,0.1319 0.16799,1.20789 c 0.55327,1.32591 0.87177,2.83925 0.0937,5.21339 l -0.0208,0.89551 c -0.18743,0.20826 -0.49843,0.3471 -0.80332,0.48594 l -0.1312,-1.13848 0.39291,-3.24882 -0.0347,-2.81843 0.33599,-0.597 z m 3.66179,5.4147 0.13051,2.48521 -1.28911,0 0.0208,-1.79101 c 0.46719,-0.18049 0.88385,-0.30545 1.13994,-0.6942 z m -1.83121,1.70078 0.0937,0.78443 -0.48594,0 c 0.0708,-0.30544 0.0708,-0.66642 0.39222,-0.78443 z"
       id="BrandenburgerTor"
       stroke-miterlimit="4"
       style="fill:#000000;fill-rule:evenodd;stroke-width:0.2;stroke-miterlimit:4;stroke-dashoffset:0;marker-start:none;marker-mid:none;marker-end:none"
       inkscape:connector-curvature="0" />
    <g
       transform="translate(-46.87504,58.969382)"
       id="g4793">
      <g
         id="g3583"
         transform="matrix(0.78955238,0.41805689,0.41805689,-0.78955238,175.25133,211.95614)">
        <path
           d="m 0,0 c -17.157,-0.01 -31.095,13.946 -31.097,31.101 l -0.008,95.217 c -0.006,17.137 13.929,31.09 31.063,31.093 8.332,0.007 16.13,-3.225 22.011,-9.096 5.881,-5.874 9.114,-13.686 9.12,-21.988 L 31.081,31.102 C 31.102,22.811 27.878,14.998 22.002,9.133 16.138,3.242 8.317,0.003 0,0"
           style="fill:#ffffff;fill-opacity:1;fill-rule:nonzero;stroke:none"
           id="path3585"
           inkscape:connector-curvature="0" />
      </g>
      <g
         id="g3587"
         transform="matrix(0.78955238,0.41805689,0.41805689,-0.78955238,237.5452,94.259841)">
        <path
           d="m 0,0 c -12.556,0.006 -22.732,-10.19 -22.735,-22.735 l 0.017,-95.214 c 0.003,-12.588 10.197,-22.747 22.738,-22.759 12.566,0.015 22.744,10.178 22.731,22.758 l 0.002,95.227 C 22.748,-10.181 12.558,0.009 0,0"
           style="fill:#ffffff;fill-opacity:1;fill-rule:nonzero;stroke:none"
           id="path3589"
           inkscape:connector-curvature="0" />
      </g>
      <path
         inkscape:connector-curvature="0"
         id="path3617"
         d="m 237.5454,94.259646 c -9.91111,-5.25386 -22.20852,-1.456941 -27.45541,8.446744 l -39.79103,75.18275 c -5.26013,9.94014 -1.46869,22.21544 8.44656,27.46341 9.91951,5.25325 22.20429,1.48401 27.45318,-8.45399 l 39.81188,-75.18587 c 5.23933,-9.90465 1.45258,-22.209821 -8.46518,-27.453044"
         style="fill:#a4c439;fill-opacity:1;fill-rule:nonzero;stroke:none" />
    </g>
  </g>
</svg>
